<?xml version="1.0" standalone="no"?>
<!DOCTYPE svg PUBLIC "-//W3C//DTD SVG 20010904//EN"
 "http://www.w3.org/TR/2001/REC-SVG-20010904/DTD/svg10.dtd">
<svg version="1.0" xmlns="http://www.w3.org/2000/svg"
 width="200.000000pt" height="200.000000pt" viewBox="0 0 200.000000 200.000000"
 preserveAspectRatio="xMidYMid meet">

<g transform="translate(0.000000,200.000000) scale(0.100000,-0.100000)"
fill="#000000" stroke="none">
<path d="M0 1000 l0 -1000 1000 0 1000 0 0 1000 0 1000 -1000 0 -1000 0 0
-1000z m375 318 c14 -6 25 -17 25 -24 0 -18 -28 -25 -49 -12 -10 6 -26 8 -35
5 -30 -12 -17 -37 31 -58 54 -23 63 -33 63 -70 0 -57 -85 -84 -144 -45 -26 17
-27 19 -12 34 13 14 20 14 36 4 27 -16 67 -15 73 2 7 18 -6 29 -58 50 -21 9
-43 22 -47 29 -15 24 -8 56 18 76 30 24 61 26 99 9z m193 -50 c9 -9 12 -9 12
0 0 7 11 12 25 12 25 0 25 -1 25 -90 0 -73 -3 -92 -16 -97 -8 -3 -20 -1 -26 5
-7 7 -19 7 -36 1 -32 -12 -87 5 -107 34 -40 58 7 147 77 147 19 0 39 -5 46
-12z m132 0 c0 -9 3 -9 12 0 16 16 71 15 86 0 10 -10 17 -10 32 0 31 19 84 15
106 -9 15 -17 19 -36 19 -93 0 -64 -2 -71 -20 -71 -17 0 -20 8 -23 50 -4 84
-9 95 -42 95 -33 0 -38 -11 -42 -95 -3 -42 -6 -50 -23 -50 -18 0 -21 8 -25 70
-5 64 -7 70 -28 73 -40 6 -52 -14 -52 -84 0 -57 -2 -64 -20 -64 -19 0 -20 7
-20 95 0 88 1 95 20 95 11 0 20 -5 20 -12z m414 -7 c17 -18 16 -19 -3 -26 -11
-3 -29 -2 -39 4 -14 7 -24 6 -38 -4 -21 -15 -24 -13 49 -35 42 -13 52 -28 43
-64 -11 -46 -105 -56 -141 -16 -24 26 -2 35 46 20 29 -10 43 -10 50 -3 17 17
3 30 -38 38 -46 8 -63 21 -63 48 0 54 96 81 134 38z m88 -47 c2 -51 7 -70 21
-78 34 -21 52 4 55 78 3 63 4 66 27 66 25 0 25 -1 25 -90 0 -73 -3 -92 -16
-97 -8 -3 -20 -1 -26 5 -7 7 -19 7 -37 1 -65 -23 -100 25 -100 134 1 43 3 47
24 47 23 0 24 -4 27 -66z m198 54 c0 -9 3 -9 12 0 19 19 72 14 96 -8 19 -18
22 -32 22 -95 0 -68 -2 -75 -20 -75 -18 0 -20 7 -20 56 0 66 -13 94 -43 94
-37 0 -47 -19 -47 -88 0 -60 -1 -63 -22 -60 -22 3 -23 8 -26 96 l-3 92 26 0
c14 0 25 -5 25 -12z m291 2 c13 -7 19 -7 19 0 0 5 9 10 20 10 19 0 20 -7 20
-110 0 -104 -1 -112 -25 -135 -18 -19 -35 -25 -66 -25 -43 0 -99 26 -99 46 0
20 32 26 50 9 35 -32 100 -9 100 35 0 17 -2 17 -29 4 -39 -19 -75 -10 -107 29
-21 25 -25 38 -20 66 10 64 81 101 137 71z m-1342 -351 c17 -6 36 -19 41 -29
15 -27 12 -73 -5 -97 -14 -20 -14 -26 5 -63 l20 -40 -25 0 c-19 0 -29 9 -42
35 -12 25 -23 35 -40 35 -20 0 -23 -5 -23 -35 0 -28 -4 -35 -20 -35 -19 0 -20
7 -20 120 l0 120 39 0 c21 0 52 -5 70 -11z m1281 -24 c0 -32 2 -35 19 -25 31
16 69 12 91 -10 16 -16 20 -33 20 -95 0 -68 -2 -75 -20 -75 -18 0 -20 7 -20
63 0 67 -10 87 -45 87 -35 0 -45 -20 -45 -87 0 -56 -2 -63 -20 -63 -19 0 -20
7 -20 120 0 113 1 120 20 120 16 0 20 -7 20 -35z m-1039 -44 c17 -17 29 -40
29 -55 0 -26 -1 -26 -75 -26 -75 0 -93 -10 -56 -30 28 -14 52 -13 71 5 17 15
50 11 50 -5 0 -17 -54 -50 -82 -50 -43 0 -86 29 -98 66 -31 93 91 165 161 95z
m178 12 c23 -15 23 -17 6 -29 -13 -10 -22 -11 -31 -3 -15 12 -54 9 -57 -5 -1
-5 21 -16 48 -25 44 -14 50 -19 53 -47 4 -37 -14 -54 -65 -61 -29 -4 -44 0
-67 18 -25 20 -26 23 -11 32 12 6 25 5 40 -3 26 -14 57 -10 62 7 3 7 -13 17
-39 23 -54 15 -68 26 -68 56 0 48 81 71 129 37z m184 5 c31 -16 46 -39 47 -70
l0 -28 -77 0 c-75 0 -76 0 -58 -20 22 -24 53 -26 83 -4 12 8 27 12 32 9 19
-12 10 -32 -23 -50 -67 -36 -147 7 -147 79 0 72 79 119 143 84z m200 1 c16 -9
22 -9 25 0 2 6 12 11 23 11 17 0 19 -8 19 -95 0 -87 -2 -95 -19 -95 -11 0 -21
5 -23 11 -3 9 -10 9 -27 0 -33 -18 -86 -5 -111 26 -60 77 27 187 113 142z
m137 1 c0 -7 6 -7 19 0 24 12 61 13 61 1 0 -24 -13 -38 -29 -34 -33 8 -51 -23
-51 -88 0 -52 -2 -59 -20 -59 -19 0 -20 7 -20 95 0 88 1 95 20 95 11 0 20 -5
20 -10z m247 -14 c23 -20 26 -27 15 -38 -10 -10 -16 -10 -30 0 -33 23 -45 25
-71 11 -37 -21 -40 -63 -6 -85 26 -17 28 -17 61 1 28 15 37 16 47 6 9 -10 6
-18 -17 -38 -39 -33 -100 -28 -133 12 -75 87 47 206 134 131z"/>
<path d="M484 1215 c-20 -30 -10 -63 23 -76 50 -19 97 33 68 77 -21 33 -69 33
-91 -1z"/>
<path d="M1612 1228 c-21 -21 -14 -66 13 -84 52 -34 111 31 70 76 -20 22 -65
26 -83 8z"/>
<path d="M280 840 c0 -35 3 -40 23 -40 32 0 61 33 52 59 -5 16 -15 21 -41 21
-33 0 -34 -1 -34 -40z"/>
<path d="M480 825 c-11 -13 -6 -15 39 -15 50 0 67 12 35 24 -27 11 -61 6 -74
-9z"/>
<path d="M873 833 c-29 -11 -10 -23 38 -23 45 0 50 2 39 15 -12 14 -52 19 -77
8z"/>
<path d="M1088 828 c-29 -22 -27 -72 3 -88 29 -16 68 -4 81 25 23 50 -40 97
-84 63z"/>
</g>
</svg>
