<?xml version="1.0" standalone="no"?>
<!DOCTYPE svg PUBLIC "-//W3C//DTD SVG 20010904//EN"
 "http://www.w3.org/TR/2001/REC-SVG-20010904/DTD/svg10.dtd">
<svg version="1.0" xmlns="http://www.w3.org/2000/svg"
 width="400.000000pt" height="163.000000pt" viewBox="0 0 400.000000 163.000000"
 preserveAspectRatio="xMidYMid meet">

<g transform="translate(0.000000,163.000000) scale(0.100000,-0.100000)"
fill="#000000" stroke="none">
<path d="M447 1332 c-17 -10 -32 -32 -39 -55 -18 -59 5 -96 91 -146 71 -42 92
-71 71 -96 -28 -34 -70 -13 -70 36 0 16 -7 19 -50 19 -50 0 -50 0 -50 -33 0
-84 108 -133 204 -93 45 19 66 52 66 104 0 37 -6 49 -33 76 -18 17 -56 43 -85
58 -41 22 -52 33 -52 52 0 30 14 40 46 32 17 -5 24 -13 24 -31 0 -23 4 -25 45
-25 44 0 45 1 45 33 -1 60 -40 87 -127 87 -37 0 -68 -7 -86 -18z"/>
<path d="M1684 1334 c-35 -17 -54 -50 -54 -95 0 -35 35 -72 115 -123 42 -26
50 -36 50 -61 0 -27 -3 -30 -30 -30 -27 0 -30 4 -33 33 -3 31 -4 32 -53 32
l-49 0 0 -36 c0 -73 88 -119 179 -94 53 14 76 37 85 84 11 58 -14 97 -90 141
-71 42 -87 61 -73 88 16 28 49 21 62 -13 10 -27 16 -30 54 -30 47 0 53 12 33
64 -19 52 -128 74 -196 40z"/>
<path d="M2834 1341 c-12 -5 -31 -22 -43 -37 -19 -24 -21 -39 -21 -150 0 -122
0 -124 29 -156 24 -27 36 -32 87 -35 68 -5 121 17 141 57 8 15 12 52 11 90
l-3 65 -65 0 c-60 0 -65 -2 -68 -23 -3 -17 2 -25 18 -29 18 -5 21 -12 18 -47
-2 -34 -7 -42 -26 -44 -44 -7 -52 12 -52 123 0 111 8 130 52 123 17 -2 24 -11
26 -30 3 -26 6 -28 54 -28 l51 0 -6 37 c-10 60 -45 86 -119 90 -35 1 -73 -1
-84 -6z"/>
<path d="M772 1168 c-18 -95 -32 -179 -32 -185 0 -9 16 -13 48 -13 l48 0 23
161 c14 88 27 155 31 147 4 -7 15 -69 25 -138 25 -183 19 -170 76 -170 27 0
49 3 49 6 0 3 -4 24 -10 47 -5 23 -18 94 -30 157 -11 63 -23 125 -26 138 -4
21 -9 22 -87 22 l-83 0 -32 -172z"/>
<path d="M1120 1155 l0 -185 45 0 45 0 2 168 3 167 31 -165 30 -165 51 -3 51
-3 4 38 c3 21 16 97 29 168 l24 130 3 -167 2 -168 45 0 45 0 0 185 0 185 -78
0 -79 0 -22 -137 c-19 -118 -31 -170 -31 -137 0 5 -9 65 -20 134 -11 69 -20
128 -20 133 0 4 -36 7 -80 7 l-80 0 0 -185z"/>
<path d="M1990 1177 c0 -150 2 -165 20 -185 11 -12 33 -24 48 -28 15 -3 33 -7
40 -10 7 -2 35 1 63 7 80 17 89 39 89 227 l0 152 -47 0 -48 0 3 -133 c3 -141
-6 -187 -36 -187 -37 0 -42 19 -42 172 l0 148 -45 0 -45 0 0 -163z"/>
<path d="M2352 1158 l3 -183 47 -3 47 -3 -4 153 c-3 84 -2 146 2 138 4 -8 25
-76 47 -150 l41 -135 68 -3 67 -3 0 186 0 185 -45 0 -44 0 -3 -141 -3 -141
-40 141 -40 141 -73 0 -72 0 2 -182z"/>
<path d="M3380 540 l0 -320 55 0 55 0 0 168 0 169 25 11 c14 7 41 12 60 12 58
0 65 -21 65 -202 l0 -158 55 0 55 0 0 177 c0 157 -2 181 -20 218 -11 23 -32
47 -46 53 -40 19 -115 15 -152 -8 -18 -11 -35 -20 -37 -20 -3 0 -5 50 -5 110
l0 110 -55 0 -55 0 0 -320z"/>
<path d="M400 520 l0 -300 55 0 55 0 0 105 0 105 39 0 c39 0 40 0 103 -105
l63 -105 69 0 68 0 -18 28 c-9 15 -42 64 -73 110 l-55 83 38 31 c48 40 66 82
66 156 0 80 -31 139 -89 169 -40 21 -58 23 -183 23 l-138 0 0 -300z m260 190
c25 -13 43 -73 35 -113 -12 -57 -29 -67 -112 -67 l-73 0 0 95 0 95 66 0 c36 0
74 -4 84 -10z"/>
<path d="M988 660 c-72 -38 -103 -112 -96 -230 9 -146 73 -210 212 -210 64 0
156 21 156 36 0 2 -7 22 -16 44 -12 29 -21 39 -32 35 -92 -35 -160 -25 -193
29 -10 17 -19 34 -19 38 0 4 62 9 138 10 l137 3 3 47 c6 90 -33 169 -99 203
-41 22 -145 19 -191 -5z m153 -99 c16 -16 29 -39 29 -50 0 -20 -6 -21 -85 -21
-53 0 -85 4 -85 10 0 23 32 72 53 80 38 15 58 11 88 -19z"/>
<path d="M1415 666 c-59 -26 -89 -85 -78 -151 10 -64 51 -90 185 -119 15 -4
33 -16 39 -28 10 -18 8 -24 -11 -40 -28 -22 -81 -22 -140 0 l-45 18 -17 -39
c-10 -22 -18 -43 -18 -47 0 -17 97 -40 167 -40 122 0 173 43 173 145 0 50 -3
60 -30 85 -19 17 -55 34 -97 45 -88 24 -103 32 -103 56 0 40 65 45 165 15 16
-6 23 1 38 36 13 33 14 43 5 50 -46 29 -181 37 -233 14z"/>
<path d="M1830 659 c-47 -27 -77 -72 -91 -138 -27 -129 22 -256 114 -290 43
-16 161 -13 207 5 45 18 46 21 24 67 l-16 34 -52 -14 c-28 -8 -66 -11 -85 -8
-37 7 -81 48 -81 76 0 17 12 19 133 21 l132 3 3 65 c4 83 -25 144 -84 177 -53
31 -154 31 -204 2z m133 -81 c30 -16 46 -39 47 -65 0 -22 -4 -23 -80 -23 -76
0 -80 1 -80 23 0 12 8 32 18 43 27 34 59 41 95 22z"/>
<path d="M2254 664 l-41 -15 15 -44 c11 -36 17 -43 31 -36 65 34 171 14 171
-32 0 -22 -5 -25 -52 -31 -83 -11 -125 -25 -157 -52 -62 -51 -61 -157 0 -208
25 -21 41 -26 88 -26 56 0 91 14 119 48 10 13 12 11 12 -16 0 -32 0 -32 50
-32 l50 0 0 183 c0 206 -8 235 -75 263 -44 18 -157 17 -211 -2z m176 -273 c0
-50 -35 -81 -89 -81 -59 0 -79 39 -46 87 16 23 36 29 98 32 37 1 37 1 37 -38z"/>
<path d="M2794 646 l-34 -34 0 29 c0 28 -1 29 -50 29 l-50 0 0 -225 0 -225 55
0 55 0 0 164 0 164 35 17 c23 10 47 14 65 10 33 -7 36 -4 45 58 l7 47 -47 0
c-40 0 -52 -5 -81 -34z"/>
<path d="M3058 660 c-77 -41 -113 -121 -107 -242 7 -135 74 -198 209 -198 63
0 140 19 140 35 0 3 -9 23 -20 45 -18 36 -22 39 -46 30 -33 -13 -100 -13 -125
0 -65 35 -64 205 2 240 21 12 97 9 130 -4 11 -5 20 4 32 29 23 49 22 54 -18
71 -50 21 -152 17 -197 -6z"/>
</g>
</svg>
